<?xml version="1.0" encoding="UTF-8" standalone="no"?>
<svg width="7px" height="11px" viewBox="0 0 7 11" version="1.1" xmlns="http://www.w3.org/2000/svg" xmlns:xlink="http://www.w3.org/1999/xlink" xmlns:sketch="http://www.bohemiancoding.com/sketch/ns">
    <!-- Generator: Sketch 3.3.2 (12043) - http://www.bohemiancoding.com/sketch -->
    <title>Imported Layers 13 Copy 2</title>
    <desc>Created with Sketch.</desc>
    <defs></defs>
    <g id="Page-1" stroke="none" stroke-width="1" fill="none" fill-rule="evenodd" sketch:type="MSPage">
        <g id="index-copy-2" sketch:type="MSArtboardGroup" transform="translate(-511.000000, -117.000000)" fill="#464B57">
            <g id="Group-Copy" sketch:type="MSLayerGroup" transform="translate(242.000000, 74.000000)">
                <path d="M277.250246,47.424523 L273.077002,51.8188693 C272.914653,51.9898704 272.720201,52.0753828 272.493647,52.0753828 C272.262908,52.0753828 272.070604,51.989894 271.916756,51.8188693 L267.743602,47.4244994 C267.581208,47.2624735 267.5,47.0599764 267.5,46.8169847 C267.5,46.5784452 267.581186,46.3736867 267.743602,46.2027091 L268.217987,45.6963958 C268.384676,45.5299176 268.579105,45.4466667 268.80132,45.4466667 C269.027852,45.4466667 269.220134,45.5298704 269.378255,45.6963958 L272.493714,48.9770318 L275.609195,45.6963958 C275.767293,45.5299411 275.959597,45.4466667 276.18613,45.4466667 C276.408389,45.4466667 276.602819,45.529894 276.769485,45.6963958 L277.250313,46.2027326 C277.408389,46.3782568 277.487427,46.5829682 277.487427,46.8170082 C277.487405,47.0555241 277.408345,47.2580448 277.250246,47.424523 Z" id="Imported-Layers-13-Copy-2" sketch:type="MSShapeGroup" transform="translate(272.500000, 48.780000) rotate(-90.000000) translate(-272.500000, -48.780000) "></path>
            </g>
        </g>
    </g>
</svg>