<?xml version="1.0" encoding="UTF-8" standalone="no"?>
<svg width="14px" height="14px" viewBox="0 0 14 14" version="1.1" xmlns="http://www.w3.org/2000/svg" xmlns:xlink="http://www.w3.org/1999/xlink" xmlns:sketch="http://www.bohemiancoding.com/sketch/ns">
    <!-- Generator: Sketch 3.3.2 (12043) - http://www.bohemiancoding.com/sketch -->
    <title>Type something Copy 3</title>
    <desc>Created with Sketch.</desc>
    <defs></defs>
    <g id="Page-1" stroke="none" stroke-width="1" fill="none" fill-rule="evenodd" sketch:type="MSPage">
        <g id="index-copy-7" sketch:type="MSArtboardGroup" transform="translate(-241.000000, -798.000000)" fill="#464B57">
            <path d="M246.076007,808.621787 L245.408978,809.305084 C245.116135,809.587081 244.763644,809.728077 244.351495,809.728077 C243.939345,809.728077 243.586854,809.587081 243.294011,809.305084 C243.153012,809.164085 243.044554,809.004109 242.968631,808.825149 C242.892709,808.646189 242.854749,808.459098 242.854749,808.263869 C242.854749,808.057794 242.892709,807.86528 242.968631,807.68632 C243.044554,807.507361 243.153012,807.347384 243.294011,807.206385 L245.766896,804.749769 C246.027201,804.50031 246.368846,804.256278 246.791842,804.017665 C247.214837,803.779052 247.605289,803.838705 247.963208,804.196624 C248.125899,804.348469 248.321125,804.42439 248.548892,804.42439 C248.776659,804.42439 248.966461,804.343046 249.118306,804.180355 C249.280997,804.017665 249.362341,803.822439 249.362341,803.594672 C249.362341,803.366905 249.280997,803.177102 249.118306,803.025258 C248.521774,802.428725 247.81408,802.17927 246.995204,802.276884 C246.176328,802.374499 245.381867,802.808334 244.611798,803.578403 L242.122644,806.035019 C241.829801,806.338708 241.602038,806.680353 241.439347,807.059965 C241.276657,807.439576 241.195312,807.840874 241.195312,808.263869 C241.195312,808.676019 241.276657,809.071893 241.439347,809.451505 C241.602038,809.831116 241.829801,810.172761 242.122644,810.476451 C242.426334,810.78014 242.773402,811.007903 243.163859,811.159748 C243.554317,811.311592 243.950191,811.387513 244.351495,811.387513 C244.752798,811.387513 245.145961,811.311592 245.530996,811.159748 C245.91603,811.007903 246.260387,810.78014 246.564076,810.476451 L247.247373,809.793153 C247.410064,809.641309 247.491408,809.451506 247.491408,809.223739 C247.491408,808.995972 247.410064,808.800746 247.247373,808.638056 C247.084683,808.475365 246.889457,808.394021 246.66169,808.394021 C246.433923,808.394021 246.238697,808.469942 246.076007,808.621787 L246.076007,808.621787 Z M253.608545,799.055626 C252.957782,798.426556 252.231108,798.095757 251.428501,798.063218 C250.625894,798.03068 249.926335,798.30725 249.329803,798.892936 L248.483816,799.738923 C248.321125,799.890768 248.239781,800.080571 248.239781,800.308338 C248.239781,800.536105 248.321125,800.73133 248.483816,800.894021 C248.646506,801.056712 248.841732,801.138056 249.069499,801.138056 C249.297266,801.138056 249.492492,801.062135 249.655182,800.91029 L250.4849,800.064303 C250.799436,799.760614 251.138369,799.646732 251.501712,799.722654 C251.865054,799.798577 252.176873,799.966688 252.437178,800.226993 C252.578177,800.367991 252.686635,800.527968 252.762558,800.706928 C252.83848,800.885887 252.87644,801.078402 252.87644,801.284477 C252.87644,801.479705 252.83848,801.666797 252.762558,801.845756 C252.686635,802.024716 252.578177,802.184693 252.437178,802.325691 L249.785334,804.944997 C249.188802,805.541529 248.733275,805.788273 248.41874,805.685236 C248.104205,805.582198 247.887287,805.465605 247.767981,805.335453 C247.60529,805.183608 247.410064,805.107687 247.182297,805.107687 C246.95453,805.107687 246.759305,805.189031 246.596614,805.351722 C246.444769,805.514412 246.368848,805.709638 246.368848,805.937405 C246.368848,806.165172 246.450192,806.360398 246.612883,806.523088 C246.884034,806.794239 247.176873,806.9976 247.491408,807.133175 C247.805943,807.268751 248.131319,807.336537 248.467547,807.336537 C248.86885,807.336537 249.280994,807.236213 249.703989,807.035561 C250.126985,806.834909 250.544551,806.528513 250.956701,806.116364 L253.608545,803.497058 C253.901388,803.193369 254.129151,802.851724 254.291842,802.472112 C254.454532,802.092501 254.535876,801.696626 254.535876,801.284477 C254.535876,800.861481 254.454532,800.460183 254.291842,800.080572 C254.129151,799.700961 253.901388,799.359315 253.608545,799.055626 L253.608545,799.055626 Z" id="Type-something-Copy-3" sketch:type="MSShapeGroup"></path>
        </g>
    </g>
</svg>